<?xml version="1.0" standalone="no"?>
<!DOCTYPE svg PUBLIC "-//W3C//DTD SVG 20010904//EN"
 "http://www.w3.org/TR/2001/REC-SVG-20010904/DTD/svg10.dtd">
<svg version="1.0" xmlns="http://www.w3.org/2000/svg"
 width="1188.000000pt" height="529.000000pt" viewBox="0 0 1188.000000 529.000000"
 preserveAspectRatio="xMidYMid meet">
<metadata>
Created by potrace 1.15, written by Peter Selinger 2001-2017
</metadata>
<g transform="translate(0.000000,529.000000) scale(0.100000,-0.100000)"
fill="#000000" stroke="none">
<path d="M4582 3148 c1 -442 4 -897 7 -1013 l6 -210 129 -3 c71 -1 133 1 137
5 4 4 9 126 10 270 1 143 5 266 9 273 4 7 33 10 80 8 l73 -3 142 -210 c79
-115 164 -240 189 -277 l47 -68 129 0 c70 0 135 3 144 6 12 5 16 20 16 64 0
55 -4 63 -68 161 -180 272 -301 458 -322 494 l-23 40 207 312 206 311 0 71 0
71 -148 0 -148 0 -185 -277 -185 -278 -77 -3 -77 -3 0 531 0 530 -150 0 -150
0 2 -802z"/>
<path d="M497 3813 c-4 -3 -7 -96 -7 -205 l0 -198 263 0 c191 0 266 -3 275
-12 9 -9 12 -187 12 -740 l0 -728 23 -5 c12 -3 76 -4 142 -3 l120 3 5 740 c3
407 6 741 8 743 1 1 124 2 272 2 l270 0 0 205 0 205 -688 0 c-379 0 -692 -3
-695 -7z"/>
<path d="M6821 3023 c1 -439 4 -865 8 -948 l6 -150 135 0 135 0 6 110 c3 61 6
339 7 619 2 281 4 512 6 514 4 3 22 -24 101 -148 13 -19 60 -96 105 -170 45
-74 93 -151 105 -170 12 -19 48 -78 80 -130 79 -128 81 -130 103 -100 22 32
102 161 102 165 0 2 13 23 29 47 16 24 38 59 49 78 19 34 135 223 225 368 32
52 46 68 51 56 3 -8 6 -290 6 -625 l0 -609 23 -5 c12 -3 76 -4 142 -3 l120 3
3 948 2 947 -153 0 -154 0 -229 -380 c-125 -209 -232 -380 -236 -380 -4 0 -29
36 -55 80 -77 127 -257 425 -336 555 l-73 120 -157 3 -157 3 1 -798z"/>
<path d="M2017 3443 c-4 -3 -7 -93 -7 -199 0 -166 2 -193 16 -198 9 -3 198 -6
420 -6 l404 0 0 -75 0 -75 -409 0 c-286 0 -412 -3 -417 -11 -13 -21 -4 -643
10 -697 20 -74 54 -136 102 -187 72 -74 82 -76 574 -73 l425 3 3 610 c2 603 2
611 -19 679 -30 93 -94 178 -158 211 l-50 25 -444 0 c-244 0 -447 -3 -450 -7z
m831 -1016 l3 -107 -273 2 -273 3 -3 98 c-3 92 -2 98 19 105 12 5 135 8 273 8
l251 -1 3 -108z"/>
<path d="M3482 3429 c-49 -23 -113 -98 -150 -179 -24 -52 -26 -66 -30 -260 -4
-189 -2 -210 17 -268 26 -77 61 -134 110 -178 64 -60 92 -64 413 -64 l288 0 0
-80 0 -80 -269 0 -270 0 -3 23 c-3 21 -6 22 -145 25 l-143 3 0 -63 c0 -182
106 -351 237 -378 33 -7 162 -10 355 -8 342 3 349 5 421 80 22 24 54 72 71
108 30 65 30 66 34 262 2 121 -1 217 -7 250 -22 103 -91 201 -168 239 -47 23
-55 24 -350 27 l-303 3 0 75 0 74 270 0 270 0 0 -25 0 -25 145 0 c126 0 146 2
152 17 12 30 -14 196 -40 255 -32 72 -97 143 -155 168 -42 19 -66 20 -376 19
-306 -1 -334 -2 -374 -20z"/>
<path d="M8587 3443 c-4 -3 -7 -93 -7 -199 0 -166 2 -193 16 -198 9 -3 198 -6
420 -6 l405 0 -3 -72 -3 -73 -415 -5 -415 -5 -3 -155 c-1 -85 1 -247 6 -360 9
-203 10 -206 41 -269 18 -34 52 -82 76 -106 73 -73 85 -75 571 -75 l422 0 7
183 c4 100 5 385 3 632 l-3 450 -32 68 c-44 94 -84 141 -145 171 l-52 26 -441
0 c-243 0 -445 -3 -448 -7z m821 -912 c9 -6 12 -34 10 -107 l-3 -99 -270 0
-270 0 -3 102 c-2 90 -1 102 15 105 34 8 508 7 521 -1z"/>
<path d="M9910 2691 l0 -759 23 -6 c12 -3 74 -6 138 -6 l116 0 6 248 c4 136 7
388 7 560 l0 312 260 0 c143 0 263 1 268 3 4 1 10 -247 13 -551 4 -336 10
-557 16 -563 5 -5 65 -8 139 -7 l129 3 5 575 c3 316 2 603 -2 638 -15 125 -98
256 -186 293 -40 18 -77 19 -488 19 l-444 0 0 -759z"/>
<path d="M5840 2700 l0 -200 398 2 397 3 0 195 0 195 -397 3 -398 2 0 -200z"/>
</g>
</svg>
