<?xml version="1.0" encoding="UTF-8" standalone="no"?>
<svg
   xmlns:dc="http://purl.org/dc/elements/1.1/"
   xmlns:cc="http://creativecommons.org/ns#"
   xmlns:rdf="http://www.w3.org/1999/02/22-rdf-syntax-ns#"
   xmlns:svg="http://www.w3.org/2000/svg"
   xmlns="http://www.w3.org/2000/svg"
   id="svg22"
   preserveAspectRatio="xMidYMid meet"
   viewBox="0 0 1054.1744 203"
   height="203pt"
   width="1054.1744pt"
   version="1.0">
  <defs
     id="defs26" />
  <metadata
     id="metadata2">
Created by potrace 1.15, written by Peter Selinger 2001-2017
<rdf:RDF>
  <cc:Work
     rdf:about="">
    <dc:format>image/svg+xml</dc:format>
    <dc:type
       rdf:resource="http://purl.org/dc/dcmitype/StillImage" />
  </cc:Work>
</rdf:RDF>
</metadata>
  <g
     style="fill:#000000;stroke:none"
     id="g20"
     transform="matrix(0.1,0,0,-0.1,-49,395)">
    <path
       id="path4"
       d="m 4582,3148 c 1,-442 4,-897 7,-1013 l 6,-210 129,-3 c 71,-1 133,1 137,5 4,4 9,126 10,270 1,143 5,266 9,273 4,7 33,10 80,8 l 73,-3 142,-210 c 79,-115 164,-240 189,-277 l 47,-68 h 129 c 70,0 135,3 144,6 12,5 16,20 16,64 0,55 -4,63 -68,161 -180,272 -301,458 -322,494 l -23,40 207,312 206,311 v 71 71 h -148 -148 l -185,-277 -185,-278 -77,-3 -77,-3 v 531 530 h -150 -150 z" />
    <path
       id="path6"
       d="m 497,3813 c -4,-3 -7,-96 -7,-205 v -198 h 263 c 191,0 266,-3 275,-12 9,-9 12,-187 12,-740 v -728 l 23,-5 c 12,-3 76,-4 142,-3 l 120,3 5,740 c 3,407 6,741 8,743 1,1 124,2 272,2 h 270 v 205 205 h -688 c -379,0 -692,-3 -695,-7 z" />
    <path
       id="path8"
       d="m 6821,3023 c 1,-439 4,-865 8,-948 l 6,-150 h 135 135 l 6,110 c 3,61 6,339 7,619 2,281 4,512 6,514 4,3 22,-24 101,-148 13,-19 60,-96 105,-170 45,-74 93,-151 105,-170 12,-19 48,-78 80,-130 79,-128 81,-130 103,-100 22,32 102,161 102,165 0,2 13,23 29,47 16,24 38,59 49,78 19,34 135,223 225,368 32,52 46,68 51,56 3,-8 6,-290 6,-625 v -609 l 23,-5 c 12,-3 76,-4 142,-3 l 120,3 3,948 2,947 h -153 -154 l -229,-380 c -125,-209 -232,-380 -236,-380 -4,0 -29,36 -55,80 -77,127 -257,425 -336,555 l -73,120 -157,3 -157,3 z" />
    <path
       id="path10"
       d="m 2017,3443 c -4,-3 -7,-93 -7,-199 0,-166 2,-193 16,-198 9,-3 198,-6 420,-6 h 404 v -75 -75 h -409 c -286,0 -412,-3 -417,-11 -13,-21 -4,-643 10,-697 20,-74 54,-136 102,-187 72,-74 82,-76 574,-73 l 425,3 3,610 c 2,603 2,611 -19,679 -30,93 -94,178 -158,211 l -50,25 h -444 c -244,0 -447,-3 -450,-7 z m 831,-1016 3,-107 -273,2 -273,3 -3,98 c -3,92 -2,98 19,105 12,5 135,8 273,8 l 251,-1 z" />
    <path
       id="path12"
       d="m 3482,3429 c -49,-23 -113,-98 -150,-179 -24,-52 -26,-66 -30,-260 -4,-189 -2,-210 17,-268 26,-77 61,-134 110,-178 64,-60 92,-64 413,-64 h 288 v -80 -80 h -269 -270 l -3,23 c -3,21 -6,22 -145,25 l -143,3 v -63 c 0,-182 106,-351 237,-378 33,-7 162,-10 355,-8 342,3 349,5 421,80 22,24 54,72 71,108 30,65 30,66 34,262 2,121 -1,217 -7,250 -22,103 -91,201 -168,239 -47,23 -55,24 -350,27 l -303,3 v 75 74 h 270 270 v -25 -25 h 145 c 126,0 146,2 152,17 12,30 -14,196 -40,255 -32,72 -97,143 -155,168 -42,19 -66,20 -376,19 -306,-1 -334,-2 -374,-20 z" />
    <path
       id="path14"
       d="m 8587,3443 c -4,-3 -7,-93 -7,-199 0,-166 2,-193 16,-198 9,-3 198,-6 420,-6 h 405 l -3,-72 -3,-73 -415,-5 -415,-5 -3,-155 c -1,-85 1,-247 6,-360 9,-203 10,-206 41,-269 18,-34 52,-82 76,-106 73,-73 85,-75 571,-75 h 422 l 7,183 c 4,100 5,385 3,632 l -3,450 -32,68 c -44,94 -84,141 -145,171 l -52,26 h -441 c -243,0 -445,-3 -448,-7 z m 821,-912 c 9,-6 12,-34 10,-107 l -3,-99 h -270 -270 l -3,102 c -2,90 -1,102 15,105 34,8 508,7 521,-1 z" />
    <path
       id="path16"
       d="m 9910,2691 v -759 l 23,-6 c 12,-3 74,-6 138,-6 h 116 l 6,248 c 4,136 7,388 7,560 v 312 h 260 c 143,0 263,1 268,3 4,1 10,-247 13,-551 4,-336 10,-557 16,-563 5,-5 65,-8 139,-7 l 129,3 5,575 c 3,316 2,603 -2,638 -15,125 -98,256 -186,293 -40,18 -77,19 -488,19 h -444 z" />
    <path
       id="path18"
       d="m 5840,2700 v -200 l 398,2 397,3 v 195 195 l -397,3 -398,2 z" />
  </g>
</svg>
